<mxfile host="" modified="2020-11-05T16:25:28.560Z" agent="5.0 (Windows NT 10.0; Win64; x64) AppleWebKit/537.36 (KHTML, like Gecko) Code/1.44.2 Chrome/78.0.3904.130 Electron/7.1.11 Safari/537.36" etag="5u-1KhAzLBVCkx90YIq5" version="13.1.3">
    <diagram id="6hGFLwfOUW9BJ-s0fimq" name="Page-1">
        <mxGraphModel dx="2715" dy="890" grid="1" gridSize="10" guides="1" tooltips="1" connect="1" arrows="1" fold="1" page="1" pageScale="1" pageWidth="827" pageHeight="1169" math="0" shadow="0">
            <root>
                <mxCell id="0"/>
                <mxCell id="1" parent="0"/>
                <mxCell id="2" value="" style="whiteSpace=wrap;html=1;aspect=fixed;fontColor=#FF0000;strokeWidth=3;" vertex="1" parent="1">
                    <mxGeometry x="850" y="60" width="580" height="580" as="geometry"/>
                </mxCell>
                <mxCell id="6" value="Management-Subnet" style="rounded=0;whiteSpace=wrap;html=1;dashed=1;dashPattern=1 1;strokeWidth=2;fillColor=none;gradientColor=#ffffff;" vertex="1" parent="1">
                    <mxGeometry x="910" y="110" width="450" height="150" as="geometry"/>
                </mxCell>
                <mxCell id="7" value="WAF - ApplicationGateway-Subnet" style="rounded=0;whiteSpace=wrap;html=1;dashed=1;dashPattern=1 1;strokeWidth=2;fillColor=none;gradientColor=#ffffff;" vertex="1" parent="1">
                    <mxGeometry x="910" y="434.5" width="450" height="150" as="geometry"/>
                </mxCell>
                <mxCell id="8" value="&lt;b&gt;&lt;font style=&quot;font-size: 18px&quot;&gt;Hub-Vnet&lt;/font&gt;&lt;/b&gt;" style="text;html=1;strokeColor=none;fillColor=none;align=center;verticalAlign=middle;whiteSpace=wrap;rounded=0;dashed=1;dashPattern=1 1;fontColor=#FF0000;" vertex="1" parent="1">
                    <mxGeometry x="885" y="650" width="500" height="20" as="geometry"/>
                </mxCell>
                <mxCell id="9" value="" style="whiteSpace=wrap;html=1;aspect=fixed;strokeWidth=4;fillColor=#000000;gradientColor=none;fontColor=#FF0000;" vertex="1" parent="1">
                    <mxGeometry x="-110" y="60" width="580" height="580" as="geometry"/>
                </mxCell>
                <mxCell id="10" value="&lt;b&gt;&lt;font style=&quot;font-size: 18px&quot;&gt;AKS-Vnet&lt;/font&gt;&lt;/b&gt;" style="text;html=1;strokeColor=none;fillColor=none;align=center;verticalAlign=middle;whiteSpace=wrap;rounded=0;dashed=1;dashPattern=1 1;fontColor=#FF0000;" vertex="1" parent="1">
                    <mxGeometry x="-70" y="650" width="500" height="20" as="geometry"/>
                </mxCell>
                <mxCell id="11" value="AKS-Default-Subnet" style="rounded=0;whiteSpace=wrap;html=1;dashed=1;dashPattern=1 1;strokeWidth=2;fillColor=none;gradientColor=#ffffff;" vertex="1" parent="1">
                    <mxGeometry x="-60" y="120" width="450" height="150" as="geometry"/>
                </mxCell>
                <mxCell id="12" value="AKS-Ingress-Subnet" style="rounded=0;whiteSpace=wrap;html=1;dashed=1;dashPattern=1 1;strokeWidth=2;fillColor=none;gradientColor=#ffffff;" vertex="1" parent="1">
                    <mxGeometry x="-60" y="380" width="450" height="150" as="geometry"/>
                </mxCell>
                <mxCell id="13" value="&lt;font style=&quot;font-size: 14px&quot; color=&quot;#009900&quot;&gt;Peeerin - Gateway Transit&lt;/font&gt;" style="endArrow=classic;startArrow=classic;html=1;fontColor=#FF0000;entryX=0.009;entryY=0.456;entryDx=0;entryDy=0;entryPerimeter=0;" edge="1" parent="1" target="2">
                    <mxGeometry width="50" height="50" relative="1" as="geometry">
                        <mxPoint x="470" y="324" as="sourcePoint"/>
                        <mxPoint x="600" y="240" as="targetPoint"/>
                    </mxGeometry>
                </mxCell>
                <mxCell id="15" value="" style="verticalLabelPosition=bottom;html=1;verticalAlign=top;align=center;strokeColor=none;fillColor=#00BEF2;shape=mxgraph.azure.virtual_network;pointerEvents=1;fontColor=#FF0000;" vertex="1" parent="1">
                    <mxGeometry x="340" y="502.5" width="50" height="27.500000000000004" as="geometry"/>
                </mxCell>
                <mxCell id="16" value="" style="verticalLabelPosition=bottom;html=1;verticalAlign=top;align=center;strokeColor=none;fillColor=#00BEF2;shape=mxgraph.azure.virtual_network;pointerEvents=1;fontColor=#FF0000;" vertex="1" parent="1">
                    <mxGeometry x="340" y="240" width="50" height="27.500000000000004" as="geometry"/>
                </mxCell>
                <mxCell id="17" value="" style="verticalLabelPosition=bottom;html=1;verticalAlign=top;align=center;strokeColor=none;fillColor=#00BEF2;shape=mxgraph.azure.virtual_network;pointerEvents=1;fontColor=#FF0000;" vertex="1" parent="1">
                    <mxGeometry x="1300" y="550" width="50" height="27.500000000000004" as="geometry"/>
                </mxCell>
                <mxCell id="18" value="" style="verticalLabelPosition=bottom;html=1;verticalAlign=top;align=center;strokeColor=none;fillColor=#00BEF2;shape=mxgraph.azure.virtual_network;pointerEvents=1;fontColor=#FF0000;" vertex="1" parent="1">
                    <mxGeometry x="1310" y="230" width="50" height="27.500000000000004" as="geometry"/>
                </mxCell>
                <mxCell id="20" value="" style="verticalLabelPosition=bottom;html=1;verticalAlign=top;align=center;strokeColor=none;fillColor=#00BEF2;shape=mxgraph.azure.virtual_network;pointerEvents=1;fontColor=#FF0000;" vertex="1" parent="1">
                    <mxGeometry x="414" y="610" width="50" height="27.500000000000004" as="geometry"/>
                </mxCell>
                <mxCell id="21" value="" style="verticalLabelPosition=bottom;html=1;verticalAlign=top;align=center;strokeColor=none;fillColor=#00BEF2;shape=mxgraph.azure.virtual_network;pointerEvents=1;fontColor=#FF0000;" vertex="1" parent="1">
                    <mxGeometry x="1380" y="610" width="50" height="27.500000000000004" as="geometry"/>
                </mxCell>
                <mxCell id="22" value="" style="verticalLabelPosition=bottom;html=1;verticalAlign=top;align=center;strokeColor=none;fillColor=#00BEF2;shape=mxgraph.azure.worker_role;fontColor=#FF0000;" vertex="1" parent="1">
                    <mxGeometry x="1050" y="540" width="60" height="37.5" as="geometry"/>
                </mxCell>
                <mxCell id="29" value="&lt;font style=&quot;font-size: 15px&quot; color=&quot;#ffffff&quot;&gt;&lt;b&gt;UDR&lt;/b&gt;&lt;/font&gt;" style="whiteSpace=wrap;html=1;aspect=fixed;strokeWidth=3;fillColor=#000000;gradientColor=none;fontColor=#FF0000;" vertex="1" parent="1">
                    <mxGeometry x="374" y="130" width="80" height="80" as="geometry"/>
                </mxCell>
                <mxCell id="30" value="&lt;font style=&quot;font-size: 15px&quot; color=&quot;#ffffff&quot;&gt;&lt;b&gt;UDR&lt;/b&gt;&lt;/font&gt;" style="whiteSpace=wrap;html=1;aspect=fixed;strokeWidth=3;fillColor=#000000;gradientColor=none;fontColor=#FF0000;" vertex="1" parent="1">
                    <mxGeometry x="870" y="90" width="80" height="80" as="geometry"/>
                </mxCell>
                <mxCell id="39" value="" style="outlineConnect=0;dashed=0;verticalLabelPosition=bottom;verticalAlign=top;align=center;html=1;shape=mxgraph.aws3.customer_gateway;fillColor=#F58536;gradientColor=none;strokeWidth=3;fontColor=#FF0000;" vertex="1" parent="1">
                    <mxGeometry x="950" y="490" width="69" height="72" as="geometry"/>
                </mxCell>
                <mxCell id="42" value="PIP" style="text;html=1;strokeColor=none;fillColor=none;align=center;verticalAlign=middle;whiteSpace=wrap;rounded=0;fontColor=#FF0000;" vertex="1" parent="1">
                    <mxGeometry x="1110" y="548.75" width="40" height="20" as="geometry"/>
                </mxCell>
                <mxCell id="44" value="" style="verticalLabelPosition=bottom;html=1;verticalAlign=top;align=center;strokeColor=none;fillColor=#00BEF2;shape=mxgraph.azure.computer;pointerEvents=1;fontColor=#FF0000;" vertex="1" parent="1">
                    <mxGeometry x="970" y="197.5" width="70" height="60" as="geometry"/>
                </mxCell>
                <mxCell id="45" value="&lt;b&gt;&lt;font style=&quot;font-size: 14px&quot; color=&quot;#000099&quot;&gt;Jumpbox&lt;/font&gt;&lt;/b&gt;" style="text;html=1;strokeColor=none;fillColor=none;align=center;verticalAlign=middle;whiteSpace=wrap;rounded=0;fontColor=#FF0000;" vertex="1" parent="1">
                    <mxGeometry x="1040" y="210" width="160" height="20" as="geometry"/>
                </mxCell>
                <mxCell id="46" value="Az-Firewall-Subnet" style="rounded=0;whiteSpace=wrap;html=1;dashed=1;dashPattern=1 1;strokeWidth=2;fillColor=none;gradientColor=#ffffff;" vertex="1" parent="1">
                    <mxGeometry x="910" y="275" width="450" height="150" as="geometry"/>
                </mxCell>
                <mxCell id="47" value="" style="fontColor=#0066CC;verticalAlign=top;verticalLabelPosition=bottom;labelPosition=center;align=center;html=1;outlineConnect=0;fillColor=#CCCCCC;strokeColor=#6881B3;gradientColor=none;gradientDirection=north;strokeWidth=2;shape=mxgraph.networks.firewall;" vertex="1" parent="1">
                    <mxGeometry x="930" y="295" width="130" height="110" as="geometry"/>
                </mxCell>
                <mxCell id="48" value="" style="verticalLabelPosition=bottom;html=1;verticalAlign=top;align=center;strokeColor=none;fillColor=#00BEF2;shape=mxgraph.azure.virtual_network;pointerEvents=1;fontColor=#FF0000;" vertex="1" parent="1">
                    <mxGeometry x="1310" y="395" width="50" height="27.500000000000004" as="geometry"/>
                </mxCell>
                <mxCell id="49" value="" style="verticalLabelPosition=bottom;html=1;verticalAlign=top;align=center;strokeColor=none;fillColor=#00BEF2;shape=mxgraph.azure.worker_role;fontColor=#FF0000;" vertex="1" parent="1">
                    <mxGeometry x="1201" y="355" width="80" height="50" as="geometry"/>
                </mxCell>
                <mxCell id="50" value="PIP" style="text;html=1;strokeColor=none;fillColor=none;align=center;verticalAlign=middle;whiteSpace=wrap;rounded=0;fontColor=#FF0000;" vertex="1" parent="1">
                    <mxGeometry x="1280" y="305" width="40" height="20" as="geometry"/>
                </mxCell>
                <mxCell id="51" value="Internal IP" style="text;html=1;strokeColor=none;fillColor=none;align=center;verticalAlign=middle;whiteSpace=wrap;rounded=0;fontColor=#FF0000;" vertex="1" parent="1">
                    <mxGeometry x="1281" y="365" width="40" height="20" as="geometry"/>
                </mxCell>
                <mxCell id="52" value="" style="verticalLabelPosition=bottom;html=1;verticalAlign=top;align=center;strokeColor=none;fillColor=#00BEF2;shape=mxgraph.azure.worker_role;fontColor=#FF0000;" vertex="1" parent="1">
                    <mxGeometry x="1210" y="295" width="80" height="50" as="geometry"/>
                </mxCell>
                <mxCell id="55" value="" style="endArrow=classic;html=1;fontColor=#FF0000;exitX=0;exitY=0.5;exitDx=0;exitDy=0;entryX=0;entryY=0.5;entryDx=0;entryDy=0;" edge="1" parent="1" source="30" target="46">
                    <mxGeometry width="50" height="50" relative="1" as="geometry">
                        <mxPoint x="570" y="660" as="sourcePoint"/>
                        <mxPoint x="680" y="540" as="targetPoint"/>
                        <Array as="points">
                            <mxPoint x="770" y="260"/>
                        </Array>
                    </mxGeometry>
                </mxCell>
                <mxCell id="56" value="" style="endArrow=classic;html=1;fontColor=#FF0000;exitX=1;exitY=0.5;exitDx=0;exitDy=0;entryX=0;entryY=0.75;entryDx=0;entryDy=0;" edge="1" parent="1" source="29" target="46">
                    <mxGeometry width="50" height="50" relative="1" as="geometry">
                        <mxPoint x="610" y="590" as="sourcePoint"/>
                        <mxPoint x="660" y="540" as="targetPoint"/>
                    </mxGeometry>
                </mxCell>
                <mxCell id="57" value="" style="whiteSpace=wrap;html=1;aspect=fixed;strokeWidth=3;fillColor=#000000;gradientColor=none;fontColor=#FF0000;" vertex="1" parent="1">
                    <mxGeometry x="1718" y="490" width="285" height="285" as="geometry"/>
                </mxCell>
                <mxCell id="59" value="" style="whiteSpace=wrap;html=1;aspect=fixed;strokeWidth=3;fillColor=#000000;gradientColor=none;fontColor=#FF0000;" vertex="1" parent="1">
                    <mxGeometry x="1718" y="160" width="285" height="285" as="geometry"/>
                </mxCell>
                <mxCell id="60" value="Container&#10;Registry" style="html=1;fillColor=#5184F3;strokeColor=none;verticalAlign=top;labelPosition=center;verticalLabelPosition=bottom;align=center;spacingTop=-6;fontSize=11;fontStyle=1;fontColor=#999999;shape=mxgraph.gcp2.hexIcon;prIcon=container_registry" vertex="1" parent="1">
                    <mxGeometry x="1770" y="203" width="66" height="58.5" as="geometry"/>
                </mxCell>
                <mxCell id="61" value="" style="outlineConnect=0;dashed=0;verticalLabelPosition=bottom;verticalAlign=top;align=center;html=1;shape=mxgraph.aws3.internet_2;fillColor=#D2D3D3;gradientColor=none;strokeWidth=3;fontColor=#FF0000;" vertex="1" parent="1">
                    <mxGeometry x="1880" y="210" width="79.5" height="54" as="geometry"/>
                </mxCell>
                <mxCell id="63" value="" style="verticalLabelPosition=bottom;html=1;verticalAlign=top;align=center;strokeColor=none;fillColor=#00BEF2;shape=mxgraph.azure.azure_subscription;fontColor=#FF0000;" vertex="1" parent="1">
                    <mxGeometry x="1940" y="405" width="50" height="35" as="geometry"/>
                </mxCell>
                <mxCell id="64" value="&lt;b&gt;&lt;font style=&quot;font-size: 16px&quot;&gt;Azure MAnaged Account&lt;/font&gt;&lt;/b&gt;" style="text;html=1;strokeColor=none;fillColor=none;align=center;verticalAlign=middle;whiteSpace=wrap;rounded=0;fontColor=#FF0000;" vertex="1" parent="1">
                    <mxGeometry x="1718" y="700" width="272" height="70" as="geometry"/>
                </mxCell>
                <mxCell id="65" value="" style="endArrow=classic;html=1;fontColor=#FF0000;entryX=0.008;entryY=0.411;entryDx=0;entryDy=0;entryPerimeter=0;exitX=1.012;exitY=0.658;exitDx=0;exitDy=0;exitPerimeter=0;" edge="1" parent="1" source="46" target="57">
                    <mxGeometry width="50" height="50" relative="1" as="geometry">
                        <mxPoint x="1490" y="420" as="sourcePoint"/>
                        <mxPoint x="1540" y="370" as="targetPoint"/>
                    </mxGeometry>
                </mxCell>
                <mxCell id="66" value="" style="endArrow=classic;html=1;fontColor=#FF0000;exitX=1.027;exitY=0.602;exitDx=0;exitDy=0;exitPerimeter=0;entryX=-0.009;entryY=0.574;entryDx=0;entryDy=0;entryPerimeter=0;" edge="1" parent="1" source="46" target="59">
                    <mxGeometry width="50" height="50" relative="1" as="geometry">
                        <mxPoint x="1510" y="360" as="sourcePoint"/>
                        <mxPoint x="1560" y="310" as="targetPoint"/>
                    </mxGeometry>
                </mxCell>
                <mxCell id="67" value="" style="endArrow=classic;html=1;fontColor=#FF0000;entryX=1;entryY=0.5;entryDx=0;entryDy=0;fillColor=#f0a30a;strokeColor=#BD7000;strokeWidth=6;" edge="1" parent="1" target="7">
                    <mxGeometry width="50" height="50" relative="1" as="geometry">
                        <mxPoint x="1710" y="220" as="sourcePoint"/>
                        <mxPoint x="1580" y="130" as="targetPoint"/>
                    </mxGeometry>
                </mxCell>
                <mxCell id="68" value="" style="endArrow=classic;html=1;fontColor=#FF0000;entryX=1.016;entryY=0.658;entryDx=0;entryDy=0;fillColor=#f0a30a;strokeColor=#BD7000;strokeWidth=6;entryPerimeter=0;" edge="1" parent="1" target="11">
                    <mxGeometry width="50" height="50" relative="1" as="geometry">
                        <mxPoint x="910" y="515.25" as="sourcePoint"/>
                        <mxPoint x="560" y="804.75" as="targetPoint"/>
                    </mxGeometry>
                </mxCell>
                <mxCell id="69" value="" style="verticalLabelPosition=bottom;html=1;verticalAlign=top;align=center;strokeColor=none;fillColor=#00BEF2;shape=mxgraph.azure.load_balancer_generic;pointerEvents=1;fontColor=#FF0000;" vertex="1" parent="1">
                    <mxGeometry x="130" y="220" width="60" height="70" as="geometry"/>
                </mxCell>
                <mxCell id="70" value="" style="endArrow=classic;html=1;fontColor=#FF0000;fillColor=#f0a30a;strokeColor=#BD7000;strokeWidth=6;exitX=0;exitY=0.71;exitDx=0;exitDy=0;exitPerimeter=0;" edge="1" parent="1" source="69">
                    <mxGeometry width="50" height="50" relative="1" as="geometry">
                        <mxPoint x="82.79999999999995" y="536.55" as="sourcePoint"/>
                        <mxPoint x="90" y="380" as="targetPoint"/>
                    </mxGeometry>
                </mxCell>
                <mxCell id="71" value="" style="endArrow=classic;html=1;fontColor=#FF0000;fillColor=#f0a30a;strokeColor=#BD7000;strokeWidth=6;" edge="1" parent="1" target="12">
                    <mxGeometry width="50" height="50" relative="1" as="geometry">
                        <mxPoint x="165" y="300" as="sourcePoint"/>
                        <mxPoint x="89.94999999999982" y="420" as="targetPoint"/>
                    </mxGeometry>
                </mxCell>
                <mxCell id="72" value="" style="endArrow=classic;html=1;fontColor=#FF0000;entryX=0.75;entryY=0;entryDx=0;entryDy=0;fillColor=#f0a30a;strokeColor=#BD7000;strokeWidth=6;exitX=1;exitY=0.71;exitDx=0;exitDy=0;exitPerimeter=0;" edge="1" parent="1" source="69" target="12">
                    <mxGeometry width="50" height="50" relative="1" as="geometry">
                        <mxPoint x="150" y="289.70000000000005" as="sourcePoint"/>
                        <mxPoint x="99.94999999999982" y="430" as="targetPoint"/>
                    </mxGeometry>
                </mxCell>
            </root>
        </mxGraphModel>
    </diagram>
</mxfile>